<svg
  width="400"
  height="400"
  viewBox="0 0 400 400"
  fill="none"
  xmlns="http://www.w3.org/2000/svg"
>
  <path
    d="M97.5 302.5C97.5 274.195 120.445 251.25 148.75 251.25H200V302.5C200 330.805 177.055 353.75 148.75 353.75C120.445 353.75 97.5 330.805 97.5 302.5Z"
    fill="#0ACF83"
  />
  <path
    d="M200 200C200 171.696 222.945 148.75 251.25 148.75C279.554 148.75 302.5 171.695 302.5 200C302.5 228.305 279.554 251.25 251.25 251.25C222.945 251.25 200 228.304 200 200Z"
    fill="#1ABCFE"
  />
  <path
    d="M97.5 200C97.5 228.305 120.445 251.25 148.75 251.25H200V148.75H148.75C120.445 148.75 97.5 171.695 97.5 200Z"
    fill="#A259FF"
  />
  <path
    d="M200 46.25V148.75H251.25C279.555 148.75 302.5 125.805 302.5 97.5C302.5 69.1954 279.555 46.25 251.25 46.25H200Z"
    fill="#FF7262"
  />
  <path
    d="M97.5 97.5C97.5 125.805 120.445 148.75 148.75 148.75H200V46.25L148.75 46.25C120.445 46.25 97.5 69.1954 97.5 97.5Z"
    fill="#F24E1E"
  />
</svg>
