<svg role="img" viewBox="0 0 120 24" xmlns="http://www.w3.org/2000/svg">
    <path d="M16.2163 18.8114H13.2394L3.5514 7.57133V18.8114H0V1.29779H2.97691L12.6649 12.8516V1.29779H16.2163V18.8114Z"/>
    <path d="M31.7841 13.2819H21.6544C22.001 15.2242 23.3605 16.4111 24.9865 16.4111C26.0262 16.4111 27.3324 16.2762 28.292 14.6307L31.4375 15.3051C30.2646 18.1106 27.8921 19.4594 24.9865 19.4594C21.2279 19.4594 18.1624 16.573 18.1624 12.3377C18.1624 8.10248 21.2279 5.18906 25.0399 5.18906C28.5852 5.18906 31.6508 7.9676 31.7841 12.068V13.2819ZM21.761 10.7731H28.1854C27.7322 9.04665 26.4527 8.29132 25.0399 8.29132C23.707 8.29132 22.1876 9.1006 21.761 10.7731Z"/>
    <path d="M48.049 18.8108H44.8286L42.1765 11.1827L39.4973 18.8108H36.2768L31.7845 5.83778H35.3297L38.0088 13.8032L40.7692 5.83778H43.5566L46.317 13.8292L48.9962 5.83778H52.5414L48.049 18.8108Z"/>
    <path d="M53.8381 18.8109V0H57.0814V18.8109H53.8381Z"/>
    <path d="M73.2976 12.3242C73.2976 16.5999 70.0531 19.4594 66.202 19.4594C62.3508 19.4594 59.0272 16.5999 59.0272 12.3242C59.0272 8.04858 62.2717 5.18906 66.202 5.18906C70.1323 5.18906 73.2976 8.04858 73.2976 12.3242ZM69.9212 12.3242C69.9212 9.79153 68.022 8.26645 66.202 8.26645C64.3819 8.26645 62.4036 9.79153 62.4036 12.3242C62.4036 14.857 64.3028 16.382 66.202 16.382C68.1012 16.382 69.9212 14.857 69.9212 12.3242Z"/>
    <path d="M88.2174 17.6406C88.2174 21.7288 85.4775 24 81.316 24C78.3177 24 76.1465 22.9045 75.0351 21.0608L77.8008 18.8965C78.8088 20.2057 79.6359 20.8203 81.316 20.8203C83.4872 20.8203 84.9089 19.4309 84.9089 17.1062V16.8925C83.9525 17.6941 82.6343 18.1216 80.8508 18.1216C77.6198 18.1216 74.5956 15.2893 74.5956 11.6286C74.5956 7.96795 77.6198 5.18906 80.8508 5.18906C82.6343 5.18906 83.9525 5.6433 84.9089 6.41819V5.58986H88.1915L88.2174 17.6406ZM84.9089 11.6286C84.9089 9.54444 83.2546 8.15499 81.4453 8.15499C79.4033 8.15499 77.8783 9.54444 77.8783 11.6286C77.8783 13.7128 79.4033 15.1022 81.4453 15.1022C83.2546 15.1022 84.9089 13.7128 84.9089 11.6286Z"/>
    <path d="M94.7036 2.0441C94.7036 3.18259 93.8765 4.03646 92.7576 4.03646C91.6387 4.03646 90.8116 3.18259 90.8116 2.0441C90.8116 0.905616 91.6144 0 92.7576 0C93.9009 0 94.7036 0.957366 94.7036 2.0441ZM91.1522 18.8109V5.89944H94.363V18.8109H91.1522Z"/>
    <path d="M107.057 13.5786L110.271 14.4149C109.533 17.4902 106.82 19.4594 103.684 19.4594C99.8376 19.4594 96.6495 16.573 96.6495 12.3377C96.6495 8.10248 99.8376 5.18906 103.684 5.18906C106.741 5.18906 109.402 7.13134 110.271 10.1527L106.925 11.1238C106.451 9.23548 105.212 8.45317 103.684 8.45317C101.497 8.45317 100.022 10.0448 100.022 12.3377C100.022 14.6307 101.497 16.1953 103.684 16.1953C105.212 16.1953 106.451 15.44 107.057 13.5786Z"/>
    <path d="M120.001 16.2247C120.001 18.1011 118.541 19.4599 116.757 19.4599C114.974 19.4599 113.514 18.1011 113.514 16.2247C113.514 14.3483 114.974 12.9734 116.757 12.9734C118.541 12.9734 120.001 14.3321 120.001 16.2247ZM119.303 16.2247C119.303 14.7365 118.168 13.6366 116.757 13.6366C115.347 13.6366 114.228 14.7365 114.228 16.2247C114.228 17.7129 115.379 18.7805 116.757 18.7805C118.136 18.7805 119.303 17.6805 119.303 16.2247ZM117.503 16.6129L118.33 17.5997H117.455L116.709 16.6938H116.303V17.5997H115.557V14.6557H116.984C117.73 14.6557 118.184 15.06 118.184 15.6424C118.184 16.0953 117.925 16.4512 117.503 16.6129ZM116.968 16.063C117.276 16.063 117.471 15.9012 117.471 15.6586C117.471 15.4321 117.276 15.2865 116.968 15.2865H116.303V16.063H116.968Z"/>
</svg>