<svg role="img" viewBox="0 0 24 24" xmlns="http://www.w3.org/2000/svg">
    <path d="M17.8075 0L12.5356 5.27199L7.2635 0L0 0L0 24H6.19233L11.4642 18.7277L16.7363 24H24L24 0L17.8075 0ZM17.8075 1.70562V10.544L13.3884 6.12467L17.8075 1.70562ZM19.0137 13.4561L19.0137 1.20651L22.7936 1.20651L22.7936 21.9413L2.05922 1.20651L6.76427 1.20651L19.0137 13.4561ZM6.19233 22.2945L6.19233 13.4561L10.6114 17.875L6.19233 22.2945ZM4.98611 10.544L4.98611 22.7938H1.20621L1.20621 2.05895L21.9411 22.7938H17.2359L4.98611 10.544Z"/>
</svg>
